<?xml version="1.0" encoding="iso-8859-1"?>
<!-- Generator: Adobe Illustrator 23.1.0, SVG Export Plug-In . SVG Version: 6.00 Build 0)  -->
<!DOCTYPE svg PUBLIC "-//W3C//DTD SVG 1.1//EN" "http://www.w3.org/Graphics/SVG/1.1/DTD/svg11.dtd" [
	<!ENTITY ns_extend "http://ns.adobe.com/Extensibility/1.0/">
	<!ENTITY ns_ai "http://ns.adobe.com/AdobeIllustrator/10.0/">
	<!ENTITY ns_graphs "http://ns.adobe.com/Graphs/1.0/">
	<!ENTITY ns_vars "http://ns.adobe.com/Variables/1.0/">
	<!ENTITY ns_imrep "http://ns.adobe.com/ImageReplacement/1.0/">
	<!ENTITY ns_sfw "http://ns.adobe.com/SaveForWeb/1.0/">
	<!ENTITY ns_custom "http://ns.adobe.com/GenericCustomNamespace/1.0/">
	<!ENTITY ns_adobe_xpath "http://ns.adobe.com/XPath/1.0/">
]>
<svg version="1.1" id="&#x56FE;&#x5C42;_1" xmlns:x="&ns_extend;" xmlns:i="&ns_ai;" xmlns:graph="&ns_graphs;"
	 xmlns="http://www.w3.org/2000/svg" xmlns:xlink="http://www.w3.org/1999/xlink" x="0px" y="0px"
	 viewBox="0 0 399.776001 266.5180054" style="enable-background:new 0 0 399.776001 266.5180054;" xml:space="preserve">
<metadata>
	<sfw  xmlns="&ns_sfw;">
		<slices></slices>
		<sliceSourceBounds  bottomLeftOrigin="true" height="266.5180054" width="399.776001" x="220.8366394" y="-431.3894348">
			</sliceSourceBounds>
	</sfw>
</metadata>
<g>
	<rect style="fill:#161E6C;" width="399.776001" height="266.5180054"/>
	<polygon style="fill:#FEE200;" points="242.4687042,87.2493286 242.7796783,90.3673706 245.8976898,90.6793823 
		243.6546783,92.8653564 245.3546906,95.4973755 242.2456818,95.1063843 241.248703,98.076355 239.6156769,95.4033813 
		236.6716766,96.4763794 237.7436981,93.5313721 235.0696869,91.8983765 238.0406952,90.9013672 237.649704,87.7923584 
		240.2816925,89.4923706 	"/>
	<polygon style="fill:#FEE200;" points="157.3075104,87.2493286 156.9965057,90.3673706 153.8785095,90.6793823 
		156.1215057,92.8653564 154.4215088,95.4973755 157.5305023,95.1063843 158.5274811,98.076355 160.1605072,95.4033813 
		163.1045074,96.4763794 162.032486,93.5313721 164.7064972,91.8983765 161.736496,90.9013672 162.1264801,87.7923584 
		159.4944916,89.4923706 	"/>
	<polygon style="fill:#FEE200;" points="199.8880157,119.0765381 196.4990082,126.3475952 188.6999969,124.4645386 
		192.2719879,131.6485596 185.9359894,136.5715942 193.7809906,138.2575684 193.6790009,146.2805786 199.8880157,141.1985474 
		206.0970001,146.2805786 205.9950104,138.2575684 213.8400116,136.5715942 207.5040131,131.6485596 211.0770111,124.4645386 
		203.2769928,126.3475952 	"/>
	<polygon style="fill:#FEE200;" points="242.4687042,179.2687988 242.7796783,176.1518555 245.8976898,175.8388062 
		243.6546783,173.652832 245.3546906,171.0218506 242.2456818,171.4118042 241.248703,168.4418335 239.6156769,171.1148071 
		236.6716766,170.0418091 237.7436981,172.9868164 235.0696869,174.619812 238.0406952,175.6168213 237.649704,178.7258301 
		240.2816925,177.0258179 	"/>
	<polygon style="fill:#FEE200;" points="238.508194,186.4476318 238.8211823,189.5646362 241.9391937,189.8746338 
		239.6971893,192.0626831 241.3981781,194.6936646 238.2891693,194.3046875 237.2941742,197.2756348 235.6591644,194.6026611 
		232.7161713,195.6766357 233.7861786,192.7316895 231.1121674,191.100647 234.081192,190.1016846 233.6901703,186.9926758 
		236.3221893,188.6916504 	"/>
	<polygon style="fill:#FEE200;" points="233.4585114,204.0081177 233.2264862,207.1321411 236.2425079,207.979126 
		233.6555023,209.7451782 234.8744965,212.630127 231.8805084,211.7091675 230.3845062,214.4611206 229.2385101,211.5461426 
		226.1534882,212.0941772 227.7184906,209.3781738 225.3675079,207.3091431 228.4654999,206.8391724 228.6184845,203.710144 
		230.9164886,205.8391724 	"/>
	<polygon style="fill:#FEE200;" points="225.4079132,220.3577271 224.7098846,223.4127808 227.5659027,224.7007446 
		224.7429047,226.0587769 225.5168915,229.0947876 222.6938934,227.7357788 220.8029022,230.2327271 220.1068878,227.1777344 
		216.9748993,227.2567749 218.9289093,224.8077393 216.9138947,222.4087524 220.0468903,222.409729 220.6668854,219.3377686 
		222.6198883,221.7887573 	"/>
	<polygon style="fill:#FEE200;" points="214.1813202,237.6340942 211.1843109,238.5480957 211.4882965,241.6661377 
		208.9053192,239.8931274 206.6562958,242.0740967 206.4313202,238.9490967 203.324295,238.552124 205.6273041,236.4281006 
		204.001297,233.7501221 207.0973053,234.2271118 208.1772919,231.2850952 209.7353058,234.0041504 212.7072906,233.0140991 
		211.554306,235.927124 	"/>
	<polygon style="fill:#FEE200;" points="196.4524078,238.552002 193.3444061,238.9490356 193.1204071,242.0740356 
		190.8713837,239.8930054 188.2884064,241.6670532 188.5913849,238.5480347 185.5953827,237.6340332 188.2223969,235.927002 
		187.0684052,233.0140381 190.0413971,234.0040283 191.5993805,231.2850342 192.6783905,234.2270508 195.7754059,233.750061 
		194.1493988,236.4280396 	"/>
	<polygon style="fill:#FEE200;" points="178.9730988,230.2327271 177.082077,227.7357788 174.259079,229.0947876 
		175.0330963,226.0587769 172.2100983,224.7007446 175.0660858,223.4127808 174.3680878,220.3577271 177.1560822,221.7887573 
		179.1090851,219.3377686 179.7290802,222.409729 182.8620758,222.4087524 180.8480988,224.8077393 182.8020782,227.2567749 
		179.6700897,227.1777344 	"/>
	<polygon style="fill:#FEE200;" points="173.6226959,212.0931396 170.537674,211.5461426 169.3916779,214.4621582 
		167.8956757,211.7091675 164.9016876,212.6311646 166.1206818,209.7451782 163.5336761,207.979187 166.5496674,207.1331787 
		166.3176727,204.0081787 168.8596954,205.8401489 171.1576691,203.710144 171.3106842,206.8391724 174.4086761,207.3081665 
		172.0576935,209.3791504 	"/>
	<polygon style="fill:#FEE200;" points="162.4824982,197.2756958 161.486496,194.3047485 158.3774872,194.6937256 
		160.079483,192.0627441 157.8374939,189.8757324 160.9554901,189.5646973 161.2684784,186.4477539 163.454483,188.6917114 
		166.0864716,186.9927368 165.6944733,190.1017456 168.6644745,191.100708 165.9894867,192.7317505 167.0604706,195.6766968 
		164.1174774,194.6027222 	"/>
	<polygon style="fill:#FEE200;" points="157.3075104,179.2687988 156.9965057,176.1518555 153.8785095,175.8388062 
		156.1215057,173.652832 154.4215088,171.0218506 157.5305023,171.4118042 158.5274811,168.4418335 160.1605072,171.1148071 
		163.1045074,170.0418091 162.032486,172.9868164 164.7064972,174.619812 161.736496,175.6168213 162.1264801,178.7258301 
		159.4944916,177.0258179 	"/>
	<polygon style="fill:#FEE200;" points="256.5037842,91.208313 256.1937561,94.326355 253.0767975,94.6403198 
		255.3207855,96.8253174 253.6217804,99.4573364 256.7307739,99.0653687 257.7297668,102.0353394 259.3607788,99.3603516 
		262.3057556,100.432373 261.231781,97.4883423 263.9047546,95.8543701 260.9337769,94.8573608 261.3227539,91.7483521 
		258.6917725,93.4503174 	"/>
	<polygon style="fill:#FEE200;" points="274.6077881,96.9046021 273.7617798,99.9216309 270.6377869,99.6886597 
		272.4687805,102.2306519 270.3387756,104.5286255 273.4687805,104.6816406 273.9367676,107.7796021 276.007782,105.4276123 
		278.7227783,106.9936523 278.1747742,103.9086304 281.0907593,102.7616577 278.3377686,101.2666626 279.2597656,98.272644 
		276.3737793,99.4926147 	"/>
	<polygon style="fill:#FEE200;" points="291.3295898,105.5812988 290.0415649,108.4363403 286.9875793,107.7383423 
		288.417572,110.5263062 285.9675598,112.4793091 289.0385742,113.1003418 289.0375671,116.2322998 291.437561,114.2192993 
		293.8865662,116.1733398 293.8075867,113.0413208 296.8625793,112.3442993 294.364563,110.4533081 295.7245789,107.6303101 
		292.6885681,108.4033203 	"/>
	<polygon style="fill:#FEE200;" points="308.2952881,121.6595459 305.1772766,121.963562 304.2632751,118.9665527 
		302.5562744,121.5935669 299.64328,120.4395752 300.6322632,123.4125977 297.9142761,124.9705811 300.8552856,126.0505981 
		300.3792725,129.1466064 303.0572815,127.5195923 305.1802673,129.8235474 305.5792847,126.7155762 308.7042847,126.4915771 
		306.5222778,124.2425537 	"/>
	<polygon style="fill:#FEE200;" points="256.5037842,175.3099365 256.1937561,172.1919556 253.0767975,171.8789673 
		255.3207855,169.6929932 253.6217804,167.0609741 256.7307739,167.4529419 257.7297668,164.4829712 259.3607788,167.157959 
		262.3057556,166.0869751 261.231781,169.0299683 263.9047546,170.6639404 260.9337769,171.6609497 261.3227539,174.7699585 
		258.6917725,173.0679932 	"/>
	<polygon style="fill:#FEE200;" points="274.6077881,169.6135864 273.7617798,166.5966187 270.6377869,166.8306274 
		272.4687805,164.2886353 270.3387756,161.989624 273.4687805,161.8366089 273.9367676,158.7385864 276.007782,161.0906372 
		278.7227783,159.5245972 278.1747742,162.6096191 281.0907593,163.7565918 278.3377686,165.2526245 279.2597656,168.2466431 
		276.3737793,167.0256348 	"/>
	<polygon style="fill:#FEE200;" points="291.3295898,160.9368286 290.0415649,158.0818481 286.9875793,158.7798462 
		288.417572,155.9918823 285.9675598,154.0388794 289.0385742,153.4178467 289.0375671,150.2858887 291.437561,152.2988892 
		293.8865662,150.3448486 293.8075867,153.4768677 296.8625793,154.1738892 294.364563,156.0658569 295.7245789,158.8878784 
		292.6885681,158.1148682 	"/>
	<polygon style="fill:#FEE200;" points="308.2952881,144.8587036 305.1772766,144.5557251 304.2632751,147.5517578 
		302.5562744,144.9247437 299.64328,146.0797119 300.6322632,143.1057129 297.9142761,141.5477295 300.8552856,140.4677124 
		300.3792725,137.3727417 303.0572815,138.9987183 305.1802673,136.6947632 305.5792847,139.8027344 308.7042847,140.0267334 
		306.5222778,142.2757568 	"/>
	<polygon style="fill:#FEE200;" points="242.4687042,87.2493286 242.7796783,90.3673706 245.8976898,90.6793823 
		243.6546783,92.8653564 245.3546906,95.4973755 242.2456818,95.1063843 241.248703,98.076355 239.6156769,95.4033813 
		236.6716766,96.4763794 237.7436981,93.5313721 235.0696869,91.8983765 238.0406952,90.9013672 237.649704,87.7923584 
		240.2816925,89.4923706 	"/>
	<polygon style="fill:#FEE200;" points="143.2723083,91.208313 143.5823059,94.326355 146.699295,94.6403198 144.455307,96.8253174 
		146.1542969,99.4573364 143.0453033,99.0653687 142.0473022,102.0353394 140.4152985,99.3603516 137.4703064,100.432373 
		138.5442963,97.4883423 135.8713074,95.8543701 138.8423004,94.8573608 138.4533081,91.7483521 141.0843048,93.4503174 	"/>
	<polygon style="fill:#FEE200;" points="125.168602,96.9046021 126.014595,99.9216309 129.1385956,99.6886597 
		127.3075943,102.2306519 129.4365997,104.5286255 126.3075943,104.6816406 125.8386002,107.7796021 123.7685928,105.4276123 
		121.0535965,106.9936523 121.6005936,103.9086304 118.6856003,102.7616577 121.438591,101.2666626 120.5165939,98.272644 
		123.4025955,99.4926147 	"/>
	<polygon style="fill:#FEE200;" points="108.4468002,105.5812988 109.7347946,108.4363403 112.7887955,107.7383423 
		111.3587875,110.5263062 113.8087997,112.4793091 110.7377853,113.1003418 110.7387924,116.2322998 108.3387985,114.2192993 
		105.8897934,116.1733398 105.9687881,113.0413208 102.9137955,112.3442993 105.4117966,110.4533081 104.051796,107.6303101 
		107.0877914,108.4033203 	"/>
	<polygon style="fill:#FEE200;" points="91.481102,121.6595459 94.5990982,121.963562 95.5140915,118.9665527 
		97.2201004,121.5935669 100.1330948,120.4395752 99.1440964,123.4125977 101.8620987,124.9705811 98.9200974,126.0505981 
		99.3970871,129.1466064 96.7190933,127.5195923 94.5951004,129.8235474 94.1980972,126.7155762 91.0720901,126.4915771 
		93.254097,124.2425537 	"/>
	<polygon style="fill:#FEE200;" points="143.2723083,175.3099365 143.5823059,172.1919556 146.699295,171.8789673 
		144.455307,169.6929932 146.1542969,167.0609741 143.0453033,167.4529419 142.0473022,164.4829712 140.4152985,167.157959 
		137.4703064,166.0869751 138.5442963,169.0299683 135.8713074,170.6639404 138.8423004,171.6609497 138.4533081,174.7699585 
		141.0843048,173.0679932 	"/>
	<polygon style="fill:#FEE200;" points="125.168602,169.6135864 126.014595,166.5966187 129.1385956,166.8306274 
		127.3075943,164.2886353 129.4365997,161.989624 126.3075943,161.8366089 125.8386002,158.7385864 123.7685928,161.0906372 
		121.0535965,159.5245972 121.6005936,162.6096191 118.6856003,163.7565918 121.438591,165.2526245 120.5165939,168.2466431 
		123.4025955,167.0256348 	"/>
	<polygon style="fill:#FEE200;" points="108.4468002,160.9368286 109.7347946,158.0818481 112.7887955,158.7798462 
		111.3587875,155.9918823 113.8087997,154.0388794 110.7377853,153.4178467 110.7387924,150.2858887 108.3387985,152.2988892 
		105.8897934,150.3448486 105.9687881,153.4768677 102.9137955,154.1738892 105.4117966,156.0658569 104.051796,158.8878784 
		107.0877914,158.1148682 	"/>
	<polygon style="fill:#FEE200;" points="91.481102,144.8587036 94.5990982,144.5557251 95.5140915,147.5517578 
		97.2201004,144.9247437 100.1330948,146.0797119 99.1440964,143.1057129 101.8620987,141.5477295 98.9200974,140.4677124 
		99.3970871,137.3727417 96.7190933,138.9987183 94.5951004,136.6947632 94.1980972,139.8027344 91.0720901,140.0267334 
		93.254097,142.2757568 	"/>
	<polygon style="fill:#FEE200;" points="238.508194,80.0706177 238.8211823,76.9536743 241.9391937,76.6436768 
		239.6971893,74.4556274 241.3981781,71.824646 238.2891693,72.213623 237.2941742,69.2426758 235.6591644,71.9156494 
		232.7161713,70.8416748 233.7861786,73.7866211 231.1121674,75.4176636 234.081192,76.416626 233.6901703,79.5256348 
		236.3221893,77.8266602 	"/>
	<polygon style="fill:#FEE200;" points="233.4585114,62.5101318 233.2264862,59.3861694 236.2425079,58.5391846 
		233.6555023,56.7741699 234.8744965,53.8881836 231.8805084,54.8101807 230.3845062,52.0571899 229.2385101,54.972168 
		226.1534882,54.4251709 227.7184906,57.1401367 225.3675079,59.2091675 228.4654999,59.6791382 228.6184845,62.8081665 
		230.9164886,60.6791382 	"/>
	<polygon style="fill:#FEE200;" points="225.4079132,46.1604004 224.7098846,43.1054077 227.5659027,41.8184204 
		224.7429047,40.4594116 225.5168915,37.4234009 222.6938934,38.7834473 220.8029022,36.2854004 220.1068878,39.3404541 
		216.9748993,39.2614136 218.9289093,41.7104492 216.9138947,44.1104126 220.0468903,44.109436 220.6668854,47.1804199 
		222.6198883,44.7294312 	"/>
	<polygon style="fill:#FEE200;" points="214.1813202,28.8851318 211.1843109,27.9711914 211.4882965,24.8531494 
		208.9053192,26.6251831 206.6562958,24.4441528 206.4313202,27.5691528 203.324295,27.9671631 205.6273041,30.0911865 
		204.001297,32.769165 207.0973053,32.2911377 208.1772919,35.2331543 209.7353058,32.5151367 212.7072906,33.5041504 
		211.554306,30.5921631 	"/>
	<polygon style="fill:#FEE200;" points="196.4524078,27.9661255 193.3444061,27.5691528 193.1204071,24.4441528 
		190.8713837,26.6251831 188.2884064,24.8531494 188.5913849,27.9711304 185.5953827,28.8841553 188.2223969,30.5911255 
		187.0684052,33.5041504 190.0413971,32.5151367 191.5993805,35.2331543 192.6783905,32.2911377 195.7754059,32.769165 
		194.1493988,30.0901489 	"/>
	<polygon style="fill:#FEE200;" points="178.9730988,36.2854004 177.082077,38.7834473 174.259079,37.4234009 
		175.0330963,40.4594116 172.2100983,41.8174438 175.0660858,43.1054077 174.3680878,46.1604004 177.1560822,44.7294312 
		179.1090851,47.1804199 179.7290802,44.1084595 182.8620758,44.109436 180.8480988,41.7104492 182.8020782,39.2614136 
		179.6700897,39.3404541 	"/>
	<polygon style="fill:#FEE200;" points="173.6226959,54.4251099 170.537674,54.972168 169.3916779,52.0561523 
		167.8956757,54.8091431 164.9016876,53.887146 166.1206818,56.7731323 163.5336761,58.5401611 166.5496674,59.3851318 
		166.3176727,62.5101318 168.8596954,60.6781616 171.1576691,62.8081665 171.3106842,59.6791382 174.4086761,59.210144 
		172.0576935,57.1391602 	"/>
	<polygon style="fill:#FEE200;" points="162.4824982,69.2424927 161.486496,72.213501 158.3774872,71.8245239 
		160.079483,74.4555054 157.8374939,76.6434937 160.9554901,76.9535522 161.2684784,80.0704956 163.454483,77.8265381 
		166.0864716,79.5255127 165.6944733,76.4165039 168.6644745,75.4175415 165.9894867,73.786499 167.0604706,70.8415527 
		164.1174774,71.9155273 	"/>
	<polygon style="fill:#FEE200;" points="246.6496124,149.3040161 245.9376068,152.3550415 248.7875824,153.6570435 
		245.9586029,155.0020752 246.7185822,158.0420532 243.9015961,156.6690674 241.999588,159.15802 241.3166046,156.1000366 
		238.1845856,156.1640625 240.1496124,153.7240601 238.1465912,151.31604 241.2795868,151.3300171 241.9135895,148.2620239 
		243.8556061,150.7210693 	"/>
	<polygon style="fill:#FEE200;" points="245.2768097,127.810791 245.9347992,130.8738403 249.0677948,130.8338013 
		247.083786,133.2588501 249.0677948,135.6838379 245.9347992,135.6437988 245.2768097,138.7068481 243.3547821,136.2338257 
		240.5487823,137.6278076 241.2848053,134.5828247 238.444809,133.2588501 241.2848053,131.935791 240.5487823,128.8898315 
		243.3547821,130.2858276 	"/>
	<polygon style="fill:#FEE200;" points="241.9991913,107.3605957 243.9021759,109.8496094 246.7181854,108.4766235 
		245.9581757,111.5166016 248.7881622,112.8616333 245.9381866,114.1636353 246.6491852,117.2145996 243.8551788,115.7976074 
		241.9141693,118.2566528 241.2791901,115.1885986 238.1461639,115.2036133 240.1491852,112.7946167 238.1841888,110.3546143 
		241.3171844,110.4186401 	"/>
	<polygon style="fill:#FEE200;" points="153.126709,149.3040161 153.8386993,152.3550415 150.9887085,153.6570435 
		153.8177032,155.0020752 153.0577087,158.0420532 155.8746948,156.6690674 157.7767029,159.15802 158.4597015,156.1000366 
		161.5916901,156.1640625 159.6266937,153.7240601 161.6296844,151.31604 158.4966888,151.3300171 157.8626862,148.2620239 
		155.9207001,150.7210693 	"/>
	<polygon style="fill:#FEE200;" points="154.4995117,127.810791 153.841507,130.8738403 150.7085114,130.8338013 
		152.6925049,133.2588501 150.7085114,135.6838379 153.841507,135.6437988 154.4995117,138.7068481 156.4215088,136.2338257 
		159.2274933,137.6278076 158.4915009,134.5828247 161.3314972,133.2588501 158.4915009,131.935791 159.2274933,128.8898315 
		156.4215088,130.2858276 	"/>
	<polygon style="fill:#FEE200;" points="157.7770996,107.3605957 155.8740845,109.8496094 153.0580902,108.4766235 
		153.8180847,111.5166016 150.9880981,112.8616333 153.838089,114.1636353 153.1270905,117.2145996 155.9210968,115.7976074 
		157.8620758,118.2566528 158.4970856,115.1885986 161.6300812,115.2036133 159.6270905,112.7946167 161.5920868,110.3546143 
		158.4590912,110.4186401 	"/>
	<polygon style="fill:#FEE200;" points="224.6706085,180.0892334 221.6306,179.3292847 220.2855988,182.1592407 
		218.9846039,179.3092651 215.9326019,180.0212402 217.3495941,177.2262573 214.8905792,175.2852783 217.9595795,174.6512451 
		217.9445953,171.5172729 220.3525848,173.5212402 222.7925873,171.5552368 222.7285919,174.68927 225.7866058,175.3702393 
		223.2975922,177.274292 	"/>
	<polygon style="fill:#FEE200;" points="202.3126984,182.4388428 199.8876801,180.4558716 197.4636688,182.4388428 
		197.5036774,179.3058472 194.439682,178.6478882 196.9146881,176.7258911 195.518692,173.9198608 198.564682,174.6558838 
		199.8876801,171.8158569 201.2116852,174.6558838 204.2566681,173.9198608 202.8616791,176.7258911 205.3356781,178.6478882 
		202.2726898,179.3058472 	"/>
	<polygon style="fill:#FEE200;" points="179.490799,182.1585083 178.1447906,179.3305664 175.1057892,180.0895386 
		176.478775,177.272522 173.9897919,175.3705444 177.0467987,174.687561 176.9827728,171.555542 179.4227753,173.5205688 
		181.8317719,171.5175171 181.8167877,174.6495361 184.8847809,175.2845459 182.4257965,177.2265625 183.8427887,180.0205688 
		180.7917938,179.3085327 	"/>
	<polygon style="fill:#FEE200;" points="224.6706085,86.4290161 221.6306,87.1890259 220.2855988,84.3600464 
		218.9846039,87.2090454 215.9326019,86.4980469 217.3495941,89.2920532 214.8905792,91.2340698 217.9595795,91.868042 
		217.9445953,95.0010376 220.3525848,92.9980469 222.7925873,94.9630737 222.7285919,91.8300171 225.7866058,91.1490479 
		223.2975922,89.2450562 	"/>
	<polygon style="fill:#FEE200;" points="202.3126984,84.0794067 199.8876801,86.0634155 197.4636688,84.0794067 
		197.5036774,87.2124634 194.439682,87.8704224 196.9146881,89.793457 195.518692,92.5984497 198.564682,91.8624268 
		199.8876801,94.7024536 201.2116852,91.8624268 204.2566681,92.5984497 202.8616791,89.793457 205.3356781,87.8704224 
		202.2726898,87.2124634 	"/>
	<polygon style="fill:#FEE200;" points="179.490799,84.3597412 178.1447906,87.1887817 175.1057892,86.4297485 
		176.478775,89.2457886 173.9897919,91.1487427 177.0467987,91.8307495 176.9827728,94.9627686 179.4227753,92.9977417 
		181.8317719,95.0007935 181.8167877,91.8677979 184.8847809,91.2337646 182.4257965,89.291748 183.8427887,86.4977417 
		180.7917938,87.2097778 	"/>
	<polygon style="fill:#FEE200;" points="157.3075104,87.2493286 156.9965057,90.3673706 153.8785095,90.6793823 
		156.1215057,92.8653564 154.4215088,95.4973755 157.5305023,95.1063843 158.5274811,98.076355 160.1605072,95.4033813 
		163.1045074,96.4763794 162.032486,93.5313721 164.7064972,91.8983765 161.736496,90.9013672 162.1264801,87.7923584 
		159.4944916,89.4923706 	"/>
</g>
</svg>
